Coordinates
version=1
nRows=10
nColumns=22
inDegrees=yes

Units are S.I. units (second, meters, Newtons, ...)
If the header above contains a line with 'inDegrees', this indicates whether rotational values are in degrees (yes) or radians (no).

endheader
time	pelvis_tilt	pelvis_list	pelvis_rotation	pelvis_tx	pelvis_ty	pelvis_tz	hip_flexion_r	hip_adduction_r	hip_rotation_r	knee_angle_r	ankle_angle_r	subtalar_angle_r	hip_flexion_l	hip_adduction_l	hip_rotation_l	knee_angle_l	ankle_angle_l	subtalar_angle_l	lumbar_extension	lumbar_bending	lumbar_rotation
      4.33000000	     -3.55253119	     -0.26394897	      3.67355994	     -0.66741239	      1.00847059	      0.26053344	      3.40893631	      1.59411567	    -12.05805609	    -18.54270500	     15.87903994	     -1.06056716	     25.41443532	     -3.50535411	    -12.08735031	    -21.47281085	      7.15157939	      8.35902125	     -5.26337270	     -6.00998134	      0.29856424
      4.34000000	     -3.44638526	     -0.19676031	      3.54949126	     -0.67076596	      1.00948910	      0.26118781	      3.40812785	      1.57660865	    -11.94788229	    -18.34909514	     15.64216225	     -1.12155472	     25.21511390	     -3.62203546	    -11.71357741	    -22.42492227	      7.29371696	      8.27669247	     -5.13930217	     -6.10726683	      0.51933183
      4.35000000	     -3.36285956	     -0.13472965	      3.35779573	     -0.67397591	      1.01040206	      0.26182450	      3.44124818	      1.55548041	    -11.78366134	    -18.18309309	     15.42250278	     -1.17561077	     25.00871319	     -3.76893429	    -11.39412329	    -23.40595310	      7.45917398	      8.20991094	     -4.98223301	     -6.18349582	      0.79973706
      4.36000000	     -3.29447668	     -0.09370932	      3.10840255	     -0.67705725	      1.01121504	      0.26248283	      3.50372465	      1.55476520	    -11.56038860	    -18.04592550	     15.19867883	     -1.23650821	     24.79006129	     -3.96154837	    -11.12446433	    -24.41029689	      7.66700657	      8.14313921	     -4.80407848	     -6.23090204	      1.12095184
      4.37000000	     -3.23636660	     -0.06805692	      2.81604325	     -0.68000576	      1.01193980	      0.26311400	      3.58668855	      1.56658824	    -11.28678383	    -17.93349461	     14.97178470	     -1.30648475	     24.55148951	     -4.18325938	    -10.89958740	    -25.42695296	      7.91408451	      8.06781768	     -4.61329710	     -6.24888533	      1.46559913
      4.38000000	     -3.18729527	     -0.05823185	      2.49792157	     -0.68287684	      1.01257381	      0.26371980	      3.69876781	      1.59238791	    -10.97639021	    -17.86043835	     14.74207347	     -1.41412358	     24.29944041	     -4.42766909	    -10.70516537	    -26.45171835	      8.15402820	      7.97689076	     -4.42354375	     -6.23861400	      1.79820915
      4.39000000	     -3.12899157	     -0.04155915	      2.18351365	     -0.68556777	      1.01316875	      0.26422811	      3.78325975	      1.60732117	    -10.66982856	    -17.77129401	     14.51289625	     -1.49199451	     23.98915336	     -4.64892891	    -10.51251486	    -27.44057508	      8.46989487	      7.86847296	     -4.24256525	     -6.22471815	      2.11276279
      4.40000000	     -3.06710665	     -0.04249819	      1.87595798	     -0.68819355	      1.01370280	      0.26465929	      3.87715365	      1.63879087	    -10.34582837	    -17.71228145	     14.27496329	     -1.60105740	     23.65258878	     -4.87443040	    -10.32504231	    -28.41391293	      8.76171343	      7.73860761	     -4.08284466	     -6.17712181	      2.38218931
      4.41000000	     -3.00225761	     -0.04615155	      1.59799024	     -0.69071372	      1.01418665	      0.26496869	      3.96094505	      1.66765734	    -10.04639273	    -17.65186719	     14.03691928	     -1.73339949	     23.28239489	     -5.07537829	    -10.12611448	    -29.34926311	      9.05683462	      7.58513127	     -3.93977093	     -6.11310932	      2.58956804
      4.42000000	     -2.92987314	     -0.06087716	      1.35665651	     -0.69317506	      1.01463103	      0.26518796	      4.04149397	      1.70492301	     -9.77793773	    -17.60879952	     13.78657971	     -1.95167760	     22.88021855	     -5.25774842	     -9.90023629	    -30.24001201	      9.30167986	      7.37092112	     -3.82801092	     -6.03324179	      2.71800579
